<svg viewBox="0 0 72 72" xmlns="http://www.w3.org/2000/svg"><path d="m12 28.1224-.003 31.9694 31.6594-.0054 16.0898-12.0482c-.0072-.0488.2538-3.9464.2538-3.9464l-.003-16z" fill="#CFCFCF"/><path d="m11.4437 28.2921 48.5533-.2003.003-15.9694s-6.5361-.9998-5.9834-.9998h-3.5569l.0526 5.772c1.7272.4562 2.1504 3.0869 2.1504 3.0874-.0225 2.1919-2.6783 2.5299-2.6907 2.5274-1.8479-.3787-2.4888-1.2828-2.4683-2.8021.0144-1.0682.046-1.3296.8087-2.0781.5122-.5019.6338-.6085 1.3107-.7802l-.0279-5.7264h-3.5395-20.0498-3.6621l.071 5.7264c1.7272.4562 2.2925.8529 2.2752 2.7188-.0205 2.1929-2.706 3.2811-2.7187 3.2811-2.2051-.0215-2.9918-1.0379-2.9713-3.243.0098-1.0683.8766-1.8637 1.6393-2.6122.5122-.5019.6989-.822 1.3758-.9937l-.2395-4.8774h-3.7434c.2142 0-6.0322.9998-6.0322.9998z" fill="#EA7847"/><path d="m59.997 48.0382h-16.8586s-.8989 6.1042-.9709 5.6225v5.4255l1.4889 1.0002z" fill="#d0cfce"/><path clip-rule="evenodd" d="m22.0151 8.6884v10.3092" fill="#9b9b9a" fill-rule="evenodd"/><path clip-rule="evenodd" d="m50.0158 8.6884v10.3092" fill="#9b9b9a" fill-rule="evenodd"/><g style="fill:none;stroke:#000;stroke-linecap:round;stroke-linejoin:round;stroke-miterlimit:10;stroke-width:2"><ellipse clip-rule="evenodd" cx="22" cy="19.849" rx="3" ry="3" transform="matrix(.0096 -1 1 .0096 1.9414 41.6581)"/><path d="m26.0057 12.1224h20.0501"/><path d="m54.0163 12.1224h5.9837v16h-48v-16h6.0318"/><path clip-rule="evenodd" d="m22.0151 8.6884v10.3092"/><ellipse clip-rule="evenodd" cx="50.0006" cy="19.849" rx="3" ry="3" transform="matrix(.0096 -1 1 .0096 29.6742 69.6575)"/><path clip-rule="evenodd" d="m50.0158 8.6884v10.3092"/><path d="m34.3355 38.092c.5248-2.5644 2.7937-4.4936 5.5134-4.4936 1.5539 0 2.9609.63 3.9793 1.6484 1.5843 1.5842 1.438 4.2167-.0484 5.8928l-9.5586 10.7799h4.7601"/><path d="m23.2764 37.3982 5.0721-3.7998v18.3211"/><path d="m11.997 28.0918v32l31.6594-.0054 16.3406-12.0482v-19.9464"/><path d="m59.7462 48.0382h-16.6078v5.4793"/></g></svg>